<svg preserveAspectRatio="none" overflow="visible" style="display: block;" width="1405" height="836" viewBox="0 0 1405 836" fill="none" xmlns="http://www.w3.org/2000/svg">
<g id="Group 1">
<circle id="Ellipse 1" cx="181" cy="135.139" r="1.9308" fill="#3A3A3A"/>
<circle id="Ellipse 24" cx="341" cy="478.114" r="1.9308" fill="#3A3A3A"/>
<circle id="Ellipse 38" cx="242" cy="300.103" r="1.9308" fill="#3A3A3A"/>
<circle id="Ellipse 25" cx="185" cy="747.46" r="1.9308" fill="#3A3A3A"/>
<circle id="Ellipse 14" cx="25" cy="404.486" r="1.9308" fill="#3A3A3A"/>
<circle id="Ellipse 39" cx="25" cy="530.305" r="1.9308" fill="#3A3A3A"/>
<circle id="Ellipse 26" cx="655" cy="445.494" r="1.9308" fill="#3A3A3A"/>
<circle id="Ellipse 3" cx="567" cy="152.847" r="1.9308" fill="#3A3A3A"/>
<circle id="Ellipse 27" cx="591" cy="534.033" r="1.9308" fill="#3A3A3A"/>
<circle id="Ellipse 2" cx="495" cy="102.52" r="1.9308" fill="#3A3A3A"/>
<circle id="Ellipse 28" cx="571" cy="765.168" r="1.9308" fill="#3A3A3A"/>
<circle id="Ellipse 40" cx="495" cy="228.339" r="1.9308" fill="#3A3A3A"/>
<circle id="Ellipse 52" cx="66" cy="145.391" r="1.9308" fill="#3A3A3A"/>
<circle id="Ellipse 5" cx="431" cy="191.059" r="1.9308" fill="#3A3A3A"/>
<circle id="Ellipse 53" cx="1.9308" cy="108.111" r="1.9308" fill="#3A3A3A"/>
<circle id="Ellipse 41" cx="431" cy="316.878" r="1.9308" fill="#3A3A3A"/>
<circle id="Ellipse 54" cx="2" cy="233.931" r="1.9308" fill="#3A3A3A"/>
<circle id="Ellipse 15" cx="411" cy="422.194" r="1.9308" fill="#3A3A3A"/>
<circle id="Ellipse 29" cx="1240" cy="395.166" r="1.9308" fill="#3A3A3A"/>
<circle id="Ellipse 42" cx="411" cy="548.013" r="1.9308" fill="#3A3A3A"/>
<circle id="Ellipse 7" cx="886" cy="208.767" r="1.9308" fill="#3A3A3A"/>
<circle id="Ellipse 8" cx="694" cy="34.4838" r="1.9308" fill="#3A3A3A"/>
<circle id="Ellipse 9" cx="1008" cy="1.9308" r="1.9308" fill="#3A3A3A"/>
<circle id="Ellipse 10" cx="1080" cy="52.1917" r="1.9308" fill="#3A3A3A"/>
<circle id="Ellipse 30" cx="435" cy="803.38" r="1.9308" fill="#3A3A3A"/>
<circle id="Ellipse 43" cx="1080" cy="178.011" r="1.9308" fill="#3A3A3A"/>
<circle id="Ellipse 11" cx="944" cy="90.4036" r="1.9308" fill="#3A3A3A"/>
<circle id="Ellipse 31" cx="890" cy="821.088" r="1.9308" fill="#3A3A3A"/>
<circle id="Ellipse 12" cx="1258" cy="57.7837" r="1.9308" fill="#3A3A3A"/>
<circle id="Ellipse 32" cx="698" cy="646.805" r="1.9308" fill="#3A3A3A"/>
<circle id="Ellipse 13" cx="1399" cy="108.111" r="1.9308" fill="#3A3A3A"/>
<circle id="Ellipse 33" cx="1012" cy="614.185" r="1.9308" fill="#3A3A3A"/>
<circle id="Ellipse 4" cx="636" cy="152.847" r="1.9308" fill="#3A3A3A"/>
<circle id="Ellipse 34" cx="1084" cy="664.513" r="1.9308" fill="#3A3A3A"/>
<circle id="Ellipse 56" cx="1153" cy="768.896" r="1.9308" fill="#3A3A3A"/>
<circle id="Ellipse 16" cx="275" cy="460.406" r="1.9308" fill="#3A3A3A"/>
<circle id="Ellipse 35" cx="948" cy="702.725" r="1.9308" fill="#3A3A3A"/>
<circle id="Ellipse 44" cx="275" cy="586.225" r="1.9308" fill="#3A3A3A"/>
<circle id="Ellipse 36" cx="1262" cy="670.105" r="1.9308" fill="#3A3A3A"/>
<circle id="Ellipse 57" cx="1292" cy="834.069" r="1.9308" fill="#3A3A3A"/>
<circle id="Ellipse 6" cx="745" cy="158.439" r="1.9308" fill="#3A3A3A"/>
<circle id="Ellipse 37" cx="1403.07" cy="720.433" r="1.9308" fill="#3A3A3A"/>
<circle id="Ellipse 17" cx="730" cy="478.114" r="1.9308" fill="#3A3A3A"/>
<circle id="Ellipse 45" cx="730" cy="603.933" r="1.9308" fill="#3A3A3A"/>
<circle id="Ellipse 18" cx="538" cy="303.831" r="1.9308" fill="#3A3A3A"/>
<circle id="Ellipse 55" cx="109" cy="220.883" r="1.9308" fill="#3A3A3A"/>
<circle id="Ellipse 46" cx="538" cy="429.65" r="1.9308" fill="#3A3A3A"/>
<circle id="Ellipse 19" cx="852" cy="271.211" r="1.9308" fill="#3A3A3A"/>
<circle id="Ellipse 47" cx="852" cy="397.03" r="1.9308" fill="#3A3A3A"/>
<circle id="Ellipse 20" cx="924" cy="321.538" r="1.9308" fill="#3A3A3A"/>
<circle id="Ellipse 48" cx="924" cy="447.358" r="1.9308" fill="#3A3A3A"/>
<circle id="Ellipse 21" cx="788" cy="359.75" r="1.9308" fill="#3A3A3A"/>
<circle id="Ellipse 49" cx="788" cy="485.57" r="1.9308" fill="#3A3A3A"/>
<circle id="Ellipse 22" cx="1102" cy="327.13" r="1.9308" fill="#3A3A3A"/>
<circle id="Ellipse 50" cx="1102" cy="452.95" r="1.9308" fill="#3A3A3A"/>
<circle id="Ellipse 23" cx="1243" cy="377.458" r="1.9308" fill="#3A3A3A"/>
<circle id="Ellipse 58" cx="1276" cy="224.611" r="1.9308" fill="#3A3A3A"/>
<circle id="Ellipse 59" cx="1374" cy="381.186" r="1.9308" fill="#3A3A3A"/>
<circle id="Ellipse 60" cx="1370" cy="544.285" r="1.9308" fill="#3A3A3A"/>
<circle id="Ellipse 51" cx="1243" cy="503.278" r="1.9308" fill="#3A3A3A"/>
</g>
</svg>
